<svg width="1440" height="50" viewBox="0 0 1440 50" fill="none" xmlns="http://www.w3.org/2000/svg">
<g filter="url(#filter0_d_1_938)">
<rect width="1440" height="40" fill="black"/>
<path d="M1245.34 22.668H1248.81V24H1243.72V15.324H1245.34V22.668ZM1258.76 19.662C1258.76 20.298 1258.66 20.888 1258.45 21.432C1258.23 21.972 1257.94 22.44 1257.55 22.836C1257.17 23.232 1256.71 23.542 1256.17 23.766C1255.63 23.986 1255.03 24.096 1254.37 24.096C1253.72 24.096 1253.12 23.986 1252.57 23.766C1252.03 23.542 1251.57 23.232 1251.18 22.836C1250.8 22.44 1250.5 21.972 1250.29 21.432C1250.07 20.888 1249.97 20.298 1249.97 19.662C1249.97 19.026 1250.07 18.438 1250.29 17.898C1250.5 17.354 1250.8 16.884 1251.18 16.488C1251.57 16.092 1252.03 15.784 1252.57 15.564C1253.12 15.34 1253.72 15.228 1254.37 15.228C1255.03 15.228 1255.63 15.34 1256.17 15.564C1256.71 15.788 1257.17 16.098 1257.55 16.494C1257.94 16.886 1258.23 17.354 1258.45 17.898C1258.66 18.438 1258.76 19.026 1258.76 19.662ZM1257.11 19.662C1257.11 19.186 1257.04 18.76 1256.92 18.384C1256.79 18.004 1256.61 17.682 1256.38 17.418C1256.14 17.154 1255.85 16.952 1255.51 16.812C1255.18 16.672 1254.8 16.602 1254.37 16.602C1253.95 16.602 1253.57 16.672 1253.23 16.812C1252.89 16.952 1252.6 17.154 1252.36 17.418C1252.12 17.682 1251.94 18.004 1251.81 18.384C1251.68 18.76 1251.62 19.186 1251.62 19.662C1251.62 20.138 1251.68 20.566 1251.81 20.946C1251.94 21.322 1252.12 21.642 1252.36 21.906C1252.6 22.166 1252.89 22.366 1253.23 22.506C1253.57 22.646 1253.95 22.716 1254.37 22.716C1254.8 22.716 1255.18 22.646 1255.51 22.506C1255.85 22.366 1256.14 22.166 1256.38 21.906C1256.61 21.642 1256.79 21.322 1256.92 20.946C1257.04 20.566 1257.11 20.138 1257.11 19.662ZM1265.02 22.812C1265.39 22.812 1265.7 22.78 1265.97 22.716C1266.24 22.648 1266.5 22.556 1266.75 22.44V20.862H1265.66C1265.56 20.862 1265.47 20.834 1265.41 20.778C1265.35 20.718 1265.32 20.646 1265.32 20.562V19.65H1268.21V23.16C1267.99 23.32 1267.76 23.46 1267.52 23.58C1267.28 23.696 1267.03 23.792 1266.76 23.868C1266.49 23.944 1266.2 24 1265.89 24.036C1265.59 24.076 1265.25 24.096 1264.9 24.096C1264.27 24.096 1263.68 23.986 1263.15 23.766C1262.62 23.546 1262.16 23.24 1261.77 22.848C1261.38 22.456 1261.08 21.988 1260.86 21.444C1260.64 20.9 1260.54 20.306 1260.54 19.662C1260.54 19.01 1260.64 18.412 1260.85 17.868C1261.07 17.324 1261.37 16.856 1261.75 16.464C1262.15 16.072 1262.62 15.768 1263.18 15.552C1263.73 15.336 1264.36 15.228 1265.05 15.228C1265.76 15.228 1266.37 15.334 1266.88 15.546C1267.4 15.754 1267.84 16.026 1268.2 16.362L1267.74 17.094C1267.64 17.242 1267.52 17.316 1267.37 17.316C1267.27 17.316 1267.18 17.284 1267.08 17.22C1266.95 17.144 1266.82 17.068 1266.68 16.992C1266.55 16.916 1266.4 16.85 1266.24 16.794C1266.08 16.738 1265.89 16.692 1265.69 16.656C1265.49 16.62 1265.26 16.602 1264.99 16.602C1264.57 16.602 1264.18 16.674 1263.83 16.818C1263.49 16.962 1263.19 17.168 1262.95 17.436C1262.7 17.704 1262.52 18.026 1262.38 18.402C1262.25 18.778 1262.19 19.198 1262.19 19.662C1262.19 20.162 1262.26 20.608 1262.4 21C1262.54 21.388 1262.73 21.716 1262.98 21.984C1263.24 22.252 1263.54 22.458 1263.88 22.602C1264.23 22.742 1264.61 22.812 1265.02 22.812ZM1275.85 24H1274.23V15.324H1275.85V24ZM1279.65 15.324C1279.72 15.324 1279.78 15.328 1279.83 15.336C1279.88 15.34 1279.92 15.352 1279.96 15.372C1280 15.388 1280.04 15.414 1280.07 15.45C1280.11 15.482 1280.15 15.526 1280.19 15.582L1284.75 21.384C1284.73 21.244 1284.72 21.108 1284.71 20.976C1284.71 20.84 1284.7 20.714 1284.7 20.598V15.324H1286.13V24H1285.29C1285.16 24 1285.06 23.98 1284.97 23.94C1284.89 23.9 1284.81 23.828 1284.73 23.724L1280.19 17.946C1280.2 18.074 1280.21 18.202 1280.22 18.33C1280.22 18.454 1280.23 18.568 1280.23 18.672V24H1278.81V15.324H1279.65Z" fill="#858479"/>
<path d="M1149.07 20.61V24H1147.45V15.324H1150.1C1150.69 15.324 1151.2 15.386 1151.62 15.51C1152.04 15.63 1152.39 15.8 1152.66 16.02C1152.93 16.24 1153.13 16.504 1153.25 16.812C1153.38 17.116 1153.44 17.452 1153.44 17.82C1153.44 18.112 1153.4 18.388 1153.31 18.648C1153.23 18.908 1153.1 19.144 1152.94 19.356C1152.78 19.568 1152.58 19.754 1152.34 19.914C1152.1 20.074 1151.83 20.202 1151.53 20.298C1151.73 20.414 1151.91 20.58 1152.06 20.796L1154.23 24H1152.78C1152.64 24 1152.52 23.972 1152.42 23.916C1152.32 23.86 1152.24 23.78 1152.17 23.676L1150.35 20.898C1150.28 20.794 1150.2 20.72 1150.12 20.676C1150.04 20.632 1149.92 20.61 1149.76 20.61H1149.07ZM1149.07 19.452H1150.08C1150.38 19.452 1150.64 19.414 1150.87 19.338C1151.1 19.262 1151.28 19.158 1151.43 19.026C1151.57 18.89 1151.68 18.73 1151.76 18.546C1151.83 18.362 1151.86 18.16 1151.86 17.94C1151.86 17.5 1151.72 17.162 1151.43 16.926C1151.14 16.69 1150.7 16.572 1150.1 16.572H1149.07V19.452ZM1161.73 15.324V16.608H1157.89V19.014H1160.92V20.256H1157.89V22.71H1161.73V24H1156.26V15.324H1161.73ZM1168.11 22.812C1168.48 22.812 1168.79 22.78 1169.06 22.716C1169.33 22.648 1169.59 22.556 1169.84 22.44V20.862H1168.75C1168.65 20.862 1168.56 20.834 1168.5 20.778C1168.44 20.718 1168.41 20.646 1168.41 20.562V19.65H1171.3V23.16C1171.08 23.32 1170.85 23.46 1170.61 23.58C1170.37 23.696 1170.12 23.792 1169.85 23.868C1169.58 23.944 1169.29 24 1168.98 24.036C1168.68 24.076 1168.34 24.096 1167.99 24.096C1167.36 24.096 1166.77 23.986 1166.24 23.766C1165.71 23.546 1165.25 23.24 1164.86 22.848C1164.47 22.456 1164.17 21.988 1163.95 21.444C1163.73 20.9 1163.63 20.306 1163.63 19.662C1163.63 19.01 1163.73 18.412 1163.94 17.868C1164.16 17.324 1164.46 16.856 1164.84 16.464C1165.24 16.072 1165.71 15.768 1166.27 15.552C1166.82 15.336 1167.45 15.228 1168.14 15.228C1168.85 15.228 1169.46 15.334 1169.97 15.546C1170.49 15.754 1170.93 16.026 1171.29 16.362L1170.83 17.094C1170.73 17.242 1170.61 17.316 1170.46 17.316C1170.36 17.316 1170.27 17.284 1170.17 17.22C1170.04 17.144 1169.91 17.068 1169.77 16.992C1169.64 16.916 1169.49 16.85 1169.33 16.794C1169.17 16.738 1168.98 16.692 1168.78 16.656C1168.58 16.62 1168.35 16.602 1168.08 16.602C1167.66 16.602 1167.27 16.674 1166.92 16.818C1166.58 16.962 1166.28 17.168 1166.04 17.436C1165.79 17.704 1165.61 18.026 1165.47 18.402C1165.34 18.778 1165.28 19.198 1165.28 19.662C1165.28 20.162 1165.35 20.608 1165.49 21C1165.63 21.388 1165.82 21.716 1166.07 21.984C1166.33 22.252 1166.63 22.458 1166.97 22.602C1167.32 22.742 1167.7 22.812 1168.11 22.812ZM1175.62 24H1174V15.324H1175.62V24ZM1183.23 16.902C1183.18 16.99 1183.13 17.052 1183.07 17.088C1183.01 17.124 1182.95 17.142 1182.87 17.142C1182.79 17.142 1182.7 17.112 1182.6 17.052C1182.5 16.988 1182.38 16.918 1182.24 16.842C1182.11 16.766 1181.95 16.698 1181.76 16.638C1181.58 16.574 1181.37 16.542 1181.12 16.542C1180.9 16.542 1180.7 16.57 1180.53 16.626C1180.37 16.678 1180.23 16.752 1180.11 16.848C1180 16.944 1179.92 17.06 1179.86 17.196C1179.8 17.328 1179.78 17.474 1179.78 17.634C1179.78 17.838 1179.83 18.008 1179.94 18.144C1180.06 18.28 1180.21 18.396 1180.4 18.492C1180.59 18.588 1180.8 18.674 1181.04 18.75C1181.28 18.826 1181.53 18.908 1181.77 18.996C1182.03 19.08 1182.27 19.18 1182.51 19.296C1182.75 19.408 1182.97 19.552 1183.15 19.728C1183.34 19.9 1183.49 20.112 1183.6 20.364C1183.72 20.616 1183.78 20.922 1183.78 21.282C1183.78 21.674 1183.71 22.042 1183.57 22.386C1183.44 22.726 1183.25 23.024 1182.99 23.28C1182.73 23.532 1182.42 23.732 1182.04 23.88C1181.67 24.024 1181.25 24.096 1180.77 24.096C1180.49 24.096 1180.22 24.068 1179.95 24.012C1179.68 23.96 1179.42 23.884 1179.18 23.784C1178.93 23.684 1178.7 23.564 1178.49 23.424C1178.27 23.284 1178.08 23.128 1177.92 22.956L1178.38 22.182C1178.43 22.126 1178.48 22.08 1178.54 22.044C1178.6 22.004 1178.67 21.984 1178.75 21.984C1178.85 21.984 1178.96 22.026 1179.07 22.11C1179.19 22.19 1179.33 22.28 1179.48 22.38C1179.64 22.48 1179.83 22.572 1180.04 22.656C1180.26 22.736 1180.51 22.776 1180.81 22.776C1181.27 22.776 1181.63 22.668 1181.88 22.452C1182.13 22.232 1182.26 21.918 1182.26 21.51C1182.26 21.282 1182.2 21.096 1182.09 20.952C1181.97 20.808 1181.82 20.688 1181.64 20.592C1181.45 20.492 1181.23 20.408 1180.99 20.34C1180.75 20.272 1180.51 20.198 1180.26 20.118C1180.01 20.038 1179.77 19.942 1179.53 19.83C1179.29 19.718 1179.08 19.572 1178.89 19.392C1178.7 19.212 1178.55 18.988 1178.43 18.72C1178.32 18.448 1178.26 18.114 1178.26 17.718C1178.26 17.402 1178.33 17.094 1178.45 16.794C1178.58 16.494 1178.76 16.228 1179 15.996C1179.25 15.764 1179.54 15.578 1179.9 15.438C1180.25 15.298 1180.65 15.228 1181.1 15.228C1181.61 15.228 1182.09 15.308 1182.52 15.468C1182.95 15.628 1183.32 15.852 1183.62 16.14L1183.23 16.902ZM1192.12 15.324V16.65H1189.51V24H1187.9V16.65H1185.28V15.324H1192.12ZM1199.62 15.324V16.608H1195.77V19.014H1198.8V20.256H1195.77V22.71H1199.62V24H1194.15V15.324H1199.62ZM1203.68 20.61V24H1202.07V15.324H1204.71C1205.3 15.324 1205.81 15.386 1206.23 15.51C1206.65 15.63 1207 15.8 1207.27 16.02C1207.54 16.24 1207.74 16.504 1207.86 16.812C1207.99 17.116 1208.05 17.452 1208.05 17.82C1208.05 18.112 1208.01 18.388 1207.92 18.648C1207.84 18.908 1207.71 19.144 1207.55 19.356C1207.39 19.568 1207.19 19.754 1206.95 19.914C1206.71 20.074 1206.44 20.202 1206.14 20.298C1206.34 20.414 1206.52 20.58 1206.67 20.796L1208.84 24H1207.39C1207.25 24 1207.13 23.972 1207.03 23.916C1206.93 23.86 1206.85 23.78 1206.78 23.676L1204.96 20.898C1204.89 20.794 1204.81 20.72 1204.73 20.676C1204.65 20.632 1204.53 20.61 1204.37 20.61H1203.68ZM1203.68 19.452H1204.69C1204.99 19.452 1205.26 19.414 1205.48 19.338C1205.71 19.262 1205.89 19.158 1206.04 19.026C1206.19 18.89 1206.3 18.73 1206.37 18.546C1206.44 18.362 1206.48 18.16 1206.48 17.94C1206.48 17.5 1206.33 17.162 1206.04 16.926C1205.75 16.69 1205.31 16.572 1204.71 16.572H1203.68V19.452Z" fill="#858479"/>
<path d="M1067.73 21.954C1067.82 21.954 1067.89 21.988 1067.96 22.056L1068.59 22.746C1068.24 23.182 1067.81 23.516 1067.29 23.748C1066.78 23.98 1066.16 24.096 1065.44 24.096C1064.8 24.096 1064.22 23.986 1063.7 23.766C1063.19 23.546 1062.75 23.24 1062.39 22.848C1062.03 22.456 1061.75 21.988 1061.55 21.444C1061.36 20.9 1061.26 20.306 1061.26 19.662C1061.26 19.01 1061.37 18.414 1061.59 17.874C1061.8 17.33 1062.11 16.862 1062.5 16.47C1062.89 16.078 1063.36 15.774 1063.9 15.558C1064.45 15.338 1065.05 15.228 1065.71 15.228C1066.36 15.228 1066.92 15.332 1067.4 15.54C1067.88 15.744 1068.3 16.016 1068.64 16.356L1068.1 17.106C1068.07 17.154 1068.03 17.196 1067.98 17.232C1067.93 17.268 1067.86 17.286 1067.77 17.286C1067.68 17.286 1067.59 17.25 1067.49 17.178C1067.39 17.106 1067.27 17.028 1067.12 16.944C1066.98 16.86 1066.79 16.782 1066.56 16.71C1066.34 16.638 1066.05 16.602 1065.7 16.602C1065.29 16.602 1064.92 16.674 1064.57 16.818C1064.23 16.958 1063.94 17.16 1063.69 17.424C1063.45 17.688 1063.26 18.01 1063.12 18.39C1062.98 18.766 1062.91 19.19 1062.91 19.662C1062.91 20.15 1062.98 20.584 1063.12 20.964C1063.26 21.344 1063.44 21.664 1063.68 21.924C1063.92 22.184 1064.19 22.384 1064.51 22.524C1064.83 22.66 1065.18 22.728 1065.55 22.728C1065.77 22.728 1065.96 22.716 1066.14 22.692C1066.32 22.668 1066.48 22.63 1066.63 22.578C1066.78 22.526 1066.93 22.46 1067.06 22.38C1067.19 22.296 1067.33 22.194 1067.46 22.074C1067.5 22.038 1067.54 22.01 1067.59 21.99C1067.63 21.966 1067.68 21.954 1067.73 21.954ZM1074.31 22.698C1074.62 22.698 1074.9 22.646 1075.14 22.542C1075.39 22.438 1075.6 22.292 1075.77 22.104C1075.94 21.916 1076.07 21.688 1076.16 21.42C1076.25 21.152 1076.3 20.852 1076.3 20.52V15.324H1077.91V20.52C1077.91 21.036 1077.83 21.514 1077.66 21.954C1077.49 22.39 1077.26 22.768 1076.94 23.088C1076.63 23.404 1076.25 23.652 1075.81 23.832C1075.37 24.008 1074.87 24.096 1074.31 24.096C1073.75 24.096 1073.25 24.008 1072.81 23.832C1072.37 23.652 1071.99 23.404 1071.68 23.088C1071.37 22.768 1071.13 22.39 1070.96 21.954C1070.8 21.514 1070.72 21.036 1070.72 20.52V15.324H1072.33V20.514C1072.33 20.846 1072.37 21.146 1072.46 21.414C1072.55 21.682 1072.68 21.912 1072.85 22.104C1073.02 22.292 1073.23 22.438 1073.47 22.542C1073.72 22.646 1074 22.698 1074.31 22.698ZM1082.22 20.61V24H1080.6V15.324H1083.25C1083.84 15.324 1084.35 15.386 1084.77 15.51C1085.19 15.63 1085.54 15.8 1085.8 16.02C1086.08 16.24 1086.27 16.504 1086.4 16.812C1086.53 17.116 1086.59 17.452 1086.59 17.82C1086.59 18.112 1086.55 18.388 1086.46 18.648C1086.37 18.908 1086.25 19.144 1086.09 19.356C1085.93 19.568 1085.73 19.754 1085.49 19.914C1085.25 20.074 1084.98 20.202 1084.68 20.298C1084.88 20.414 1085.06 20.58 1085.2 20.796L1087.38 24H1085.92C1085.78 24 1085.66 23.972 1085.56 23.916C1085.47 23.86 1085.39 23.78 1085.32 23.676L1083.49 20.898C1083.43 20.794 1083.35 20.72 1083.27 20.676C1083.19 20.632 1083.07 20.61 1082.91 20.61H1082.22ZM1082.22 19.452H1083.22C1083.53 19.452 1083.79 19.414 1084.02 19.338C1084.24 19.262 1084.43 19.158 1084.57 19.026C1084.72 18.89 1084.83 18.73 1084.9 18.546C1084.98 18.362 1085.01 18.16 1085.01 17.94C1085.01 17.5 1084.87 17.162 1084.57 16.926C1084.29 16.69 1083.84 16.572 1083.25 16.572H1082.22V19.452ZM1094.06 16.902C1094.02 16.99 1093.97 17.052 1093.91 17.088C1093.85 17.124 1093.78 17.142 1093.7 17.142C1093.62 17.142 1093.53 17.112 1093.43 17.052C1093.33 16.988 1093.21 16.918 1093.08 16.842C1092.94 16.766 1092.78 16.698 1092.6 16.638C1092.42 16.574 1092.2 16.542 1091.96 16.542C1091.73 16.542 1091.54 16.57 1091.37 16.626C1091.2 16.678 1091.06 16.752 1090.95 16.848C1090.84 16.944 1090.75 17.06 1090.7 17.196C1090.64 17.328 1090.61 17.474 1090.61 17.634C1090.61 17.838 1090.67 18.008 1090.78 18.144C1090.9 18.28 1091.05 18.396 1091.24 18.492C1091.42 18.588 1091.64 18.674 1091.88 18.75C1092.12 18.826 1092.36 18.908 1092.61 18.996C1092.86 19.08 1093.11 19.18 1093.35 19.296C1093.59 19.408 1093.8 19.552 1093.99 19.728C1094.18 19.9 1094.33 20.112 1094.44 20.364C1094.56 20.616 1094.61 20.922 1094.61 21.282C1094.61 21.674 1094.55 22.042 1094.41 22.386C1094.28 22.726 1094.08 23.024 1093.82 23.28C1093.57 23.532 1093.25 23.732 1092.88 23.88C1092.51 24.024 1092.08 24.096 1091.6 24.096C1091.33 24.096 1091.05 24.068 1090.79 24.012C1090.52 23.96 1090.26 23.884 1090.01 23.784C1089.77 23.684 1089.54 23.564 1089.32 23.424C1089.11 23.284 1088.92 23.128 1088.75 22.956L1089.22 22.182C1089.26 22.126 1089.32 22.08 1089.38 22.044C1089.44 22.004 1089.51 21.984 1089.59 21.984C1089.69 21.984 1089.79 22.026 1089.91 22.11C1090.03 22.19 1090.16 22.28 1090.32 22.38C1090.48 22.48 1090.66 22.572 1090.88 22.656C1091.09 22.736 1091.35 22.776 1091.65 22.776C1092.11 22.776 1092.47 22.668 1092.72 22.452C1092.97 22.232 1093.1 21.918 1093.1 21.51C1093.1 21.282 1093.04 21.096 1092.92 20.952C1092.81 20.808 1092.66 20.688 1092.47 20.592C1092.28 20.492 1092.07 20.408 1091.83 20.34C1091.59 20.272 1091.35 20.198 1091.1 20.118C1090.85 20.038 1090.61 19.942 1090.37 19.83C1090.13 19.718 1089.91 19.572 1089.72 19.392C1089.54 19.212 1089.38 18.988 1089.27 18.72C1089.16 18.448 1089.1 18.114 1089.1 17.718C1089.1 17.402 1089.16 17.094 1089.29 16.794C1089.41 16.494 1089.6 16.228 1089.84 15.996C1090.08 15.764 1090.38 15.578 1090.73 15.438C1091.08 15.298 1091.49 15.228 1091.94 15.228C1092.45 15.228 1092.92 15.308 1093.35 15.468C1093.79 15.628 1094.15 15.852 1094.46 16.14L1094.06 16.902ZM1105.17 19.662C1105.17 20.298 1105.06 20.888 1104.85 21.432C1104.64 21.972 1104.34 22.44 1103.95 22.836C1103.57 23.232 1103.11 23.542 1102.57 23.766C1102.03 23.986 1101.43 24.096 1100.77 24.096C1100.12 24.096 1099.52 23.986 1098.97 23.766C1098.43 23.542 1097.97 23.232 1097.58 22.836C1097.2 22.44 1096.9 21.972 1096.69 21.432C1096.48 20.888 1096.37 20.298 1096.37 19.662C1096.37 19.026 1096.48 18.438 1096.69 17.898C1096.9 17.354 1097.2 16.884 1097.58 16.488C1097.97 16.092 1098.43 15.784 1098.97 15.564C1099.52 15.34 1100.12 15.228 1100.77 15.228C1101.43 15.228 1102.03 15.34 1102.57 15.564C1103.11 15.788 1103.57 16.098 1103.95 16.494C1104.34 16.886 1104.64 17.354 1104.85 17.898C1105.06 18.438 1105.17 19.026 1105.17 19.662ZM1103.51 19.662C1103.51 19.186 1103.45 18.76 1103.32 18.384C1103.19 18.004 1103.01 17.682 1102.78 17.418C1102.54 17.154 1102.25 16.952 1101.91 16.812C1101.58 16.672 1101.2 16.602 1100.77 16.602C1100.35 16.602 1099.97 16.672 1099.63 16.812C1099.29 16.952 1099 17.154 1098.76 17.418C1098.52 17.682 1098.34 18.004 1098.21 18.384C1098.08 18.76 1098.02 19.186 1098.02 19.662C1098.02 20.138 1098.08 20.566 1098.21 20.946C1098.34 21.322 1098.52 21.642 1098.76 21.906C1099 22.166 1099.29 22.366 1099.63 22.506C1099.97 22.646 1100.35 22.716 1100.77 22.716C1101.2 22.716 1101.58 22.646 1101.91 22.506C1102.25 22.366 1102.54 22.166 1102.78 21.906C1103.01 21.642 1103.19 21.322 1103.32 20.946C1103.45 20.566 1103.51 20.138 1103.51 19.662ZM1112.09 16.902C1112.05 16.99 1112 17.052 1111.94 17.088C1111.88 17.124 1111.81 17.142 1111.73 17.142C1111.65 17.142 1111.56 17.112 1111.46 17.052C1111.36 16.988 1111.24 16.918 1111.11 16.842C1110.97 16.766 1110.81 16.698 1110.63 16.638C1110.45 16.574 1110.23 16.542 1109.99 16.542C1109.76 16.542 1109.57 16.57 1109.4 16.626C1109.23 16.678 1109.09 16.752 1108.98 16.848C1108.87 16.944 1108.78 17.06 1108.73 17.196C1108.67 17.328 1108.64 17.474 1108.64 17.634C1108.64 17.838 1108.7 18.008 1108.81 18.144C1108.93 18.28 1109.08 18.396 1109.27 18.492C1109.45 18.588 1109.67 18.674 1109.91 18.75C1110.15 18.826 1110.39 18.908 1110.64 18.996C1110.89 19.08 1111.14 19.18 1111.38 19.296C1111.62 19.408 1111.83 19.552 1112.02 19.728C1112.21 19.9 1112.36 20.112 1112.47 20.364C1112.59 20.616 1112.64 20.922 1112.64 21.282C1112.64 21.674 1112.58 22.042 1112.44 22.386C1112.31 22.726 1112.11 23.024 1111.85 23.28C1111.6 23.532 1111.28 23.732 1110.91 23.88C1110.54 24.024 1110.11 24.096 1109.63 24.096C1109.36 24.096 1109.08 24.068 1108.82 24.012C1108.55 23.96 1108.29 23.884 1108.04 23.784C1107.8 23.684 1107.57 23.564 1107.35 23.424C1107.14 23.284 1106.95 23.128 1106.78 22.956L1107.25 22.182C1107.29 22.126 1107.35 22.08 1107.41 22.044C1107.47 22.004 1107.54 21.984 1107.62 21.984C1107.72 21.984 1107.82 22.026 1107.94 22.11C1108.06 22.19 1108.19 22.28 1108.35 22.38C1108.51 22.48 1108.69 22.572 1108.91 22.656C1109.12 22.736 1109.38 22.776 1109.68 22.776C1110.14 22.776 1110.5 22.668 1110.75 22.452C1111 22.232 1111.13 21.918 1111.13 21.51C1111.13 21.282 1111.07 21.096 1110.95 20.952C1110.84 20.808 1110.69 20.688 1110.5 20.592C1110.31 20.492 1110.1 20.408 1109.86 20.34C1109.62 20.272 1109.38 20.198 1109.13 20.118C1108.88 20.038 1108.64 19.942 1108.4 19.83C1108.16 19.718 1107.94 19.572 1107.75 19.392C1107.57 19.212 1107.41 18.988 1107.3 18.72C1107.19 18.448 1107.13 18.114 1107.13 17.718C1107.13 17.402 1107.19 17.094 1107.32 16.794C1107.44 16.494 1107.63 16.228 1107.87 15.996C1108.11 15.764 1108.41 15.578 1108.76 15.438C1109.11 15.298 1109.52 15.228 1109.97 15.228C1110.48 15.228 1110.95 15.308 1111.38 15.468C1111.82 15.628 1112.18 15.852 1112.49 16.14L1112.09 16.902Z" fill="#858479"/>
<path d="M683 24.2327C682.208 24.6352 681.264 24.8365 680.119 24.8365C678.862 24.8365 677.352 24.3962 677.352 22.2956V11L673 13.2516V22.2579C673 26.3962 675.792 29.0629 680.119 29.0629C682.522 29.0629 684.635 28.434 686.409 27.1887C687.013 26.7987 687.34 26.1572 687.34 25.4025V11L683 13.2516V24.2327Z" fill="white"/>
<path d="M697.73 11.6666C694.736 11.6666 692.434 12.5974 691.365 13.4025C690.761 13.8553 690.447 14.4842 690.447 15.239V27.4779L694.799 29.7295V16.4339C695.591 16.0817 696.56 15.9056 697.679 15.9056C698.711 15.9056 700.447 16.2578 700.447 18.5849V27.4779L704.799 29.7295V18.4717C704.799 14.1446 702.22 11.6666 697.73 11.6666Z" fill="white"/>
<path d="M731.453 23.088C730.987 24.2075 730.019 24.8616 728.774 24.8616C726.987 24.8616 725.88 23.8553 725.717 22.1195C725.641 20.761 725.629 19.5408 725.717 18.5346C725.868 16.8364 726.987 15.8679 728.774 15.8679C729.994 15.8679 730.924 16.4968 731.39 17.6415L731.704 18.4088L735.541 17.7044V16.849C735.541 15.7295 734.899 14.5723 733.629 13.4151C732.396 12.2452 730.748 11.6666 728.736 11.6666C726.698 11.6666 724.975 12.283 723.604 13.4905C722.22 14.7358 721.465 16.3459 721.365 18.2327C721.277 19.6163 721.277 21.0125 721.365 22.371C721.465 24.2452 722.208 25.8679 723.591 27.1761C724.95 28.4339 726.673 29.0629 728.736 29.0629C730.761 29.0629 732.409 28.4842 733.641 27.3522C734.962 26.1698 735.604 25.0377 735.604 23.8679V23.0125L731.767 22.3207L731.453 23.088Z" fill="white"/>
<path d="M749.579 13.4905C748.245 12.283 746.535 11.6666 744.497 11.6666C742.497 11.6666 740.786 12.283 739.39 13.5157C738.006 14.761 737.252 16.3585 737.151 18.2327C737.063 19.6415 737.063 21 737.151 22.371C737.252 24.2956 738.006 25.9182 739.415 27.1886C740.799 28.4339 742.497 29.0629 744.497 29.0629C746.522 29.0629 748.233 28.4339 749.579 27.1886C750.987 25.9182 751.742 24.2956 751.843 22.3836C751.931 21 751.931 19.6415 751.843 18.2452C751.742 16.3207 750.975 14.7232 749.579 13.4905ZM741.503 18.5346C741.616 16.8616 742.736 15.8679 744.497 15.8679C746.27 15.8679 747.39 16.8616 747.491 18.5346C747.566 19.7295 747.566 20.9371 747.491 22.0817C747.34 23.8176 746.22 24.8616 744.484 24.8616C742.761 24.8616 741.642 23.8301 741.491 22.1069C741.415 20.9371 741.415 19.7295 741.503 18.5346Z" fill="white"/>
<path d="M761.805 18.522L760.887 18.2956L759.465 17.9559C758.031 17.5534 758.031 17.2138 758.031 17C758.031 16.5597 758.031 15.8176 759.981 15.8176C760.673 15.8176 761.402 16.044 762.208 16.522L762.975 16.9748L765.566 13.7421L764.748 13.1006C763.528 12.1446 761.956 11.6666 760.069 11.6666C756.283 11.6666 753.742 13.8427 753.742 17.088C753.742 18.8113 754.56 21.0754 758.447 22.0943C758.623 22.1446 758.887 22.2075 759.34 22.3081C759.654 22.3836 760.057 22.4717 760.547 22.5849C761.528 22.8239 762.031 23.1761 762.031 23.6289C762.031 24.61 761 24.9496 760.031 24.9496C758.434 24.9496 757.767 24.6352 756.774 23.8805L755.969 23.2641L753.377 26.61L754.145 27.239C755.616 28.4465 757.528 29.0629 759.843 29.0629C763.742 29.0629 766.358 26.8239 766.358 23.5031C766.346 21.7673 765.566 19.4905 761.805 18.522Z" fill="white"/>
<path d="M717.893 11.2012L713.792 21.4527L710.912 14.8112L709.352 11.2138L705.541 13.4527L711.44 26.8867C710.849 28.4213 709.969 29.5156 708.774 30.22L706.874 30.9119L708.359 34.9999L710.497 34.22L711.352 33.7546L711.403 33.7295C712.95 32.7987 714.66 30.4968 715.755 27.8553L721.704 13.4402L717.893 11.2012Z" fill="white"/>
</g>
<defs>
<filter id="filter0_d_1_938" x="-8" y="-6" width="1456" height="56" filterUnits="userSpaceOnUse" color-interpolation-filters="sRGB">
<feFlood flood-opacity="0" result="BackgroundImageFix"/>
<feColorMatrix in="SourceAlpha" type="matrix" values="0 0 0 0 0 0 0 0 0 0 0 0 0 0 0 0 0 0 127 0" result="hardAlpha"/>
<feOffset dy="2"/>
<feGaussianBlur stdDeviation="4"/>
<feColorMatrix type="matrix" values="0 0 0 0 0 0 0 0 0 0 0 0 0 0 0 0 0 0 1 0"/>
<feBlend mode="normal" in2="BackgroundImageFix" result="effect1_dropShadow_1_938"/>
<feBlend mode="normal" in="SourceGraphic" in2="effect1_dropShadow_1_938" result="shape"/>
</filter>
</defs>
</svg>
