<svg width="368" height="48" viewBox="0 0 368 48" fill="none" xmlns="http://www.w3.org/2000/svg">
<rect width="368" height="48" rx="4" fill="#C5AF19"/>
<path d="M106.585 25.2C106.676 25.3707 106.759 25.5493 106.833 25.736C106.913 25.9173 106.991 26.1013 107.065 26.288C107.14 26.096 107.217 25.9067 107.297 25.72C107.377 25.5333 107.463 25.3547 107.553 25.184L110.977 18.776C111.02 18.696 111.063 18.632 111.105 18.584C111.153 18.536 111.204 18.5013 111.257 18.48C111.316 18.4587 111.38 18.4453 111.449 18.44C111.519 18.4347 111.601 18.432 111.697 18.432H113.321V30H111.425V22.528C111.425 22.3893 111.428 22.2373 111.433 22.072C111.444 21.9067 111.457 21.7387 111.473 21.568L107.977 28.128C107.897 28.2773 107.793 28.3947 107.665 28.48C107.537 28.56 107.388 28.6 107.217 28.6H106.921C106.751 28.6 106.601 28.56 106.473 28.48C106.345 28.3947 106.241 28.2773 106.161 28.128L102.617 21.544C102.639 21.72 102.652 21.8933 102.657 22.064C102.668 22.2293 102.673 22.384 102.673 22.528V30H100.777V18.432H102.401C102.497 18.432 102.58 18.4347 102.649 18.44C102.719 18.4453 102.78 18.4587 102.833 18.48C102.892 18.5013 102.945 18.536 102.993 18.584C103.041 18.632 103.087 18.696 103.129 18.776L106.585 25.2ZM126.82 30H125.156C124.97 30 124.815 29.9547 124.692 29.864C124.575 29.768 124.49 29.6507 124.436 29.512L123.572 27.152H118.78L117.916 29.512C117.874 29.6347 117.788 29.7467 117.66 29.848C117.538 29.9493 117.386 30 117.204 30H115.532L120.076 18.432H122.276L126.82 30ZM119.332 25.632H123.02L121.612 21.784C121.548 21.6133 121.476 21.4133 121.396 21.184C121.322 20.9493 121.247 20.696 121.172 20.424C121.098 20.696 121.023 20.9493 120.948 21.184C120.879 21.4187 120.81 21.624 120.74 21.8L119.332 25.632ZM135.212 20.536C135.153 20.6533 135.084 20.736 135.004 20.784C134.929 20.832 134.838 20.856 134.732 20.856C134.625 20.856 134.505 20.816 134.372 20.736C134.238 20.6507 134.081 20.5573 133.9 20.456C133.718 20.3547 133.505 20.264 133.26 20.184C133.02 20.0987 132.734 20.056 132.404 20.056C132.105 20.056 131.844 20.0933 131.62 20.168C131.401 20.2373 131.214 20.336 131.06 20.464C130.91 20.592 130.798 20.7467 130.724 20.928C130.649 21.104 130.612 21.2987 130.612 21.512C130.612 21.784 130.686 22.0107 130.836 22.192C130.99 22.3733 131.193 22.528 131.444 22.656C131.694 22.784 131.98 22.8987 132.3 23C132.62 23.1013 132.945 23.2107 133.276 23.328C133.612 23.44 133.94 23.5733 134.26 23.728C134.58 23.8773 134.865 24.0693 135.116 24.304C135.366 24.5333 135.566 24.816 135.716 25.152C135.87 25.488 135.948 25.896 135.948 26.376C135.948 26.8987 135.857 27.3893 135.676 27.848C135.5 28.3013 135.238 28.6987 134.892 29.04C134.55 29.376 134.132 29.6427 133.636 29.84C133.14 30.032 132.572 30.128 131.932 30.128C131.564 30.128 131.201 30.0907 130.844 30.016C130.486 29.9467 130.142 29.8453 129.812 29.712C129.486 29.5787 129.18 29.4187 128.892 29.232C128.609 29.0453 128.356 28.8373 128.132 28.608L128.756 27.576C128.814 27.5013 128.884 27.44 128.964 27.392C129.049 27.3387 129.142 27.312 129.244 27.312C129.377 27.312 129.521 27.368 129.676 27.48C129.83 27.5867 130.012 27.7067 130.22 27.84C130.433 27.9733 130.681 28.096 130.964 28.208C131.252 28.3147 131.596 28.368 131.996 28.368C132.609 28.368 133.084 28.224 133.42 27.936C133.756 27.6427 133.924 27.224 133.924 26.68C133.924 26.376 133.846 26.128 133.692 25.936C133.542 25.744 133.342 25.584 133.092 25.456C132.841 25.3227 132.556 25.2107 132.236 25.12C131.916 25.0293 131.59 24.9307 131.26 24.824C130.929 24.7173 130.604 24.5893 130.284 24.44C129.964 24.2907 129.678 24.096 129.428 23.856C129.177 23.616 128.974 23.3173 128.82 22.96C128.67 22.5973 128.596 22.152 128.596 21.624C128.596 21.2027 128.678 20.792 128.844 20.392C129.014 19.992 129.26 19.6373 129.58 19.328C129.905 19.0187 130.302 18.7707 130.772 18.584C131.241 18.3973 131.777 18.304 132.38 18.304C133.062 18.304 133.692 18.4107 134.268 18.624C134.844 18.8373 135.334 19.136 135.74 19.52L135.212 20.536ZM145.108 30H142.948V18.432H145.108V30ZM149.843 18.432C149.939 18.432 150.019 18.4373 150.083 18.448C150.147 18.4533 150.203 18.4693 150.251 18.496C150.304 18.5173 150.355 18.552 150.403 18.6C150.451 18.6427 150.504 18.7013 150.563 18.776L156.635 26.512C156.614 26.3253 156.598 26.144 156.587 25.968C156.582 25.7867 156.579 25.6187 156.579 25.464V18.432H158.475V30H157.363C157.192 30 157.051 29.9733 156.939 29.92C156.827 29.8667 156.718 29.7707 156.611 29.632L150.563 21.928C150.579 22.0987 150.59 22.2693 150.595 22.44C150.606 22.6053 150.611 22.7573 150.611 22.896V30H148.715V18.432H149.843ZM169.105 18.432V20.144H163.977V23.568H168.305V25.288H163.977V30H161.809V18.432H169.105ZM182.889 24.216C182.889 25.064 182.748 25.8507 182.465 26.576C182.182 27.296 181.785 27.92 181.273 28.448C180.761 28.976 180.145 29.3893 179.425 29.688C178.705 29.9813 177.908 30.128 177.033 30.128C176.158 30.128 175.358 29.9813 174.633 29.688C173.913 29.3893 173.294 28.976 172.777 28.448C172.265 27.92 171.868 27.296 171.585 26.576C171.302 25.8507 171.161 25.064 171.161 24.216C171.161 23.368 171.302 22.584 171.585 21.864C171.868 21.1387 172.265 20.512 172.777 19.984C173.294 19.456 173.913 19.0453 174.633 18.752C175.358 18.4533 176.158 18.304 177.033 18.304C177.908 18.304 178.705 18.4533 179.425 18.752C180.145 19.0507 180.761 19.464 181.273 19.992C181.785 20.5147 182.182 21.1387 182.465 21.864C182.748 22.584 182.889 23.368 182.889 24.216ZM180.681 24.216C180.681 23.5813 180.596 23.0133 180.425 22.512C180.26 22.0053 180.02 21.576 179.705 21.224C179.39 20.872 179.006 20.6027 178.553 20.416C178.105 20.2293 177.598 20.136 177.033 20.136C176.468 20.136 175.958 20.2293 175.505 20.416C175.052 20.6027 174.665 20.872 174.345 21.224C174.03 21.576 173.788 22.0053 173.617 22.512C173.446 23.0133 173.361 23.5813 173.361 24.216C173.361 24.8507 173.446 25.4213 173.617 25.928C173.788 26.4293 174.03 26.856 174.345 27.208C174.665 27.5547 175.052 27.8213 175.505 28.008C175.958 28.1947 176.468 28.288 177.033 28.288C177.598 28.288 178.105 28.1947 178.553 28.008C179.006 27.8213 179.39 27.5547 179.705 27.208C180.02 26.856 180.26 26.4293 180.425 25.928C180.596 25.4213 180.681 24.8507 180.681 24.216ZM187.814 25.48V30H185.662V18.432H189.19C189.979 18.432 190.654 18.5147 191.214 18.68C191.779 18.84 192.241 19.0667 192.598 19.36C192.961 19.6533 193.225 20.0053 193.39 20.416C193.561 20.8213 193.646 21.2693 193.646 21.76C193.646 22.1493 193.587 22.5173 193.47 22.864C193.358 23.2107 193.193 23.5253 192.974 23.808C192.761 24.0907 192.494 24.3387 192.174 24.552C191.859 24.7653 191.499 24.936 191.094 25.064C191.366 25.2187 191.601 25.44 191.798 25.728L194.694 30H192.758C192.571 30 192.411 29.9627 192.278 29.888C192.15 29.8133 192.041 29.7067 191.95 29.568L189.518 25.864C189.427 25.7253 189.326 25.6267 189.214 25.568C189.107 25.5093 188.947 25.48 188.734 25.48H187.814ZM187.814 23.936H189.158C189.563 23.936 189.915 23.8853 190.214 23.784C190.518 23.6827 190.766 23.544 190.958 23.368C191.155 23.1867 191.302 22.9733 191.398 22.728C191.494 22.4827 191.542 22.2133 191.542 21.92C191.542 21.3333 191.347 20.8827 190.958 20.568C190.574 20.2533 189.985 20.096 189.19 20.096H187.814V23.936ZM202.882 25.2C202.973 25.3707 203.056 25.5493 203.13 25.736C203.21 25.9173 203.288 26.1013 203.362 26.288C203.437 26.096 203.514 25.9067 203.594 25.72C203.674 25.5333 203.76 25.3547 203.85 25.184L207.274 18.776C207.317 18.696 207.36 18.632 207.402 18.584C207.45 18.536 207.501 18.5013 207.554 18.48C207.613 18.4587 207.677 18.4453 207.746 18.44C207.816 18.4347 207.898 18.432 207.994 18.432H209.618V30H207.722V22.528C207.722 22.3893 207.725 22.2373 207.73 22.072C207.741 21.9067 207.754 21.7387 207.77 21.568L204.274 28.128C204.194 28.2773 204.09 28.3947 203.962 28.48C203.834 28.56 203.685 28.6 203.514 28.6H203.218C203.048 28.6 202.898 28.56 202.77 28.48C202.642 28.3947 202.538 28.2773 202.458 28.128L198.914 21.544C198.936 21.72 198.949 21.8933 198.954 22.064C198.965 22.2293 198.97 22.384 198.97 22.528V30H197.074V18.432H198.698C198.794 18.432 198.877 18.4347 198.946 18.44C199.016 18.4453 199.077 18.4587 199.13 18.48C199.189 18.5013 199.242 18.536 199.29 18.584C199.338 18.632 199.384 18.696 199.426 18.776L202.882 25.2ZM223.117 30H221.453C221.267 30 221.112 29.9547 220.989 29.864C220.872 29.768 220.787 29.6507 220.733 29.512L219.869 27.152H215.077L214.213 29.512C214.171 29.6347 214.085 29.7467 213.957 29.848C213.835 29.9493 213.683 30 213.501 30H211.829L216.373 18.432H218.573L223.117 30ZM215.629 25.632H219.317L217.909 21.784C217.845 21.6133 217.773 21.4133 217.693 21.184C217.619 20.9493 217.544 20.696 217.469 20.424C217.395 20.696 217.32 20.9493 217.245 21.184C217.176 21.4187 217.107 21.624 217.037 21.8L215.629 25.632ZM232.854 27.272C232.972 27.272 233.073 27.3173 233.158 27.408L234.006 28.328C233.537 28.9093 232.958 29.3547 232.27 29.664C231.588 29.9733 230.766 30.128 229.806 30.128C228.948 30.128 228.174 29.9813 227.486 29.688C226.804 29.3947 226.22 28.9867 225.734 28.464C225.249 27.9413 224.876 27.3173 224.614 26.592C224.358 25.8667 224.23 25.0747 224.23 24.216C224.23 23.3467 224.374 22.552 224.662 21.832C224.95 21.1067 225.356 20.4827 225.878 19.96C226.401 19.4373 227.025 19.032 227.75 18.744C228.481 18.4507 229.286 18.304 230.166 18.304C231.025 18.304 231.774 18.4427 232.414 18.72C233.06 18.992 233.612 19.3547 234.07 19.808L233.35 20.808C233.308 20.872 233.252 20.928 233.182 20.976C233.118 21.024 233.028 21.048 232.91 21.048C232.788 21.048 232.662 21 232.534 20.904C232.406 20.808 232.244 20.704 232.046 20.592C231.849 20.48 231.598 20.376 231.294 20.28C230.996 20.184 230.614 20.136 230.15 20.136C229.606 20.136 229.105 20.232 228.646 20.424C228.193 20.6107 227.801 20.88 227.47 21.232C227.145 21.584 226.889 22.0133 226.702 22.52C226.521 23.0213 226.43 23.5867 226.43 24.216C226.43 24.8667 226.521 25.4453 226.702 25.952C226.889 26.4587 227.14 26.8853 227.454 27.232C227.769 27.5787 228.14 27.8453 228.566 28.032C228.993 28.2133 229.452 28.304 229.942 28.304C230.236 28.304 230.5 28.288 230.734 28.256C230.974 28.224 231.193 28.1733 231.39 28.104C231.593 28.0347 231.782 27.9467 231.958 27.84C232.14 27.728 232.318 27.592 232.494 27.432C232.548 27.384 232.604 27.3467 232.662 27.32C232.721 27.288 232.785 27.272 232.854 27.272ZM239.061 30H236.901V18.432H239.061V30ZM253.764 24.216C253.764 25.064 253.623 25.8507 253.34 26.576C253.057 27.296 252.66 27.92 252.148 28.448C251.636 28.976 251.02 29.3893 250.3 29.688C249.58 29.9813 248.783 30.128 247.908 30.128C247.033 30.128 246.233 29.9813 245.508 29.688C244.788 29.3893 244.169 28.976 243.652 28.448C243.14 27.92 242.743 27.296 242.46 26.576C242.177 25.8507 242.036 25.064 242.036 24.216C242.036 23.368 242.177 22.584 242.46 21.864C242.743 21.1387 243.14 20.512 243.652 19.984C244.169 19.456 244.788 19.0453 245.508 18.752C246.233 18.4533 247.033 18.304 247.908 18.304C248.783 18.304 249.58 18.4533 250.3 18.752C251.02 19.0507 251.636 19.464 252.148 19.992C252.66 20.5147 253.057 21.1387 253.34 21.864C253.623 22.584 253.764 23.368 253.764 24.216ZM251.556 24.216C251.556 23.5813 251.471 23.0133 251.3 22.512C251.135 22.0053 250.895 21.576 250.58 21.224C250.265 20.872 249.881 20.6027 249.428 20.416C248.98 20.2293 248.473 20.136 247.908 20.136C247.343 20.136 246.833 20.2293 246.38 20.416C245.927 20.6027 245.54 20.872 245.22 21.224C244.905 21.576 244.663 22.0053 244.492 22.512C244.321 23.0133 244.236 23.5813 244.236 24.216C244.236 24.8507 244.321 25.4213 244.492 25.928C244.663 26.4293 244.905 26.856 245.22 27.208C245.54 27.5547 245.927 27.8213 246.38 28.008C246.833 28.1947 247.343 28.288 247.908 28.288C248.473 28.288 248.98 28.1947 249.428 28.008C249.881 27.8213 250.265 27.5547 250.58 27.208C250.895 26.856 251.135 26.4293 251.3 25.928C251.471 25.4213 251.556 24.8507 251.556 24.216ZM250.996 15.672L248.628 17.4C248.569 17.4427 248.513 17.4773 248.46 17.504C248.412 17.5307 248.361 17.552 248.308 17.568C248.26 17.584 248.207 17.5947 248.148 17.6C248.095 17.6053 248.031 17.608 247.956 17.608H246.404L247.972 15.992C248.036 15.928 248.095 15.8747 248.148 15.832C248.207 15.7893 248.265 15.7573 248.324 15.736C248.383 15.7093 248.449 15.6933 248.524 15.688C248.599 15.6773 248.689 15.672 248.796 15.672H250.996ZM257.593 18.432C257.689 18.432 257.769 18.4373 257.833 18.448C257.897 18.4533 257.953 18.4693 258.001 18.496C258.054 18.5173 258.105 18.552 258.153 18.6C258.201 18.6427 258.254 18.7013 258.313 18.776L264.385 26.512C264.364 26.3253 264.348 26.144 264.337 25.968C264.332 25.7867 264.329 25.6187 264.329 25.464V18.432H266.225V30H265.113C264.942 30 264.801 29.9733 264.689 29.92C264.577 29.8667 264.468 29.7707 264.361 29.632L258.313 21.928C258.329 22.0987 258.34 22.2693 258.345 22.44C258.356 22.6053 258.361 22.7573 258.361 22.896V30H256.465V18.432H257.593Z" fill="white"/>
</svg>
